#!OML:ASF E:\Style4\Style4.ASF
:FULLY-SPECIFIED
:DEGREES
1073
root -0.0452647 17.8148 -1.95098 0.051737 -4.34685 1.87656
lowerback 6.01581 1.79464 1.09101
upperback 1.40831 2.45808 0.164798
thorax -1.88099 1.22106 -0.626266
lowerneck -5.86082 -4.96304 -5.46673
upperneck 9.17672 -6.52505 3.84045
head 4.0053 -3.22098 1.70461
rclavicle -1.54555e-014 7.55382e-015
rhumerus 2.90851 35.6947 -75.8112
rradius 77.7176
rwrist 10.4286
rhand -27.6679 15.0716
rfingers 7.12502
rthumb -1.06517 -14.9055
lclavicle -1.54555e-014 7.55382e-015
lhumerus -17.5778 -42.2641 88.6237
lradius 76.5403
lwrist -10.3316
lhand -16.9839 26.649
lfingers 7.12502
lthumb 9.25088 56.4261
rfemur -12.9867 3.62978 16.5625
rtibia 31.3381
rfoot -17.0745 -13.7186
rtoes -13.2355
lfemur -9.46881 -1.60176 -21.012
ltibia 28.6014
lfoot -19.5119 10.7044
ltoes -13.3392
1074
root -0.0465879 17.8212 -1.94795 0.0816741 -4.22583 1.87611
lowerback 5.97848 1.78623 0.998313
upperback 1.37879 2.44238 0.225327
thorax -1.89738 1.21348 -0.510527
lowerneck -5.836 -4.95853 -5.47997
upperneck 9.25345 -6.51209 3.75442
head 4.02159 -3.21957 1.68113
rclavicle -2.15184e-014 1.03368e-014
rhumerus 2.45038 35.6294 -76.0306
rradius 77.5976
rwrist 9.93349
rhand -27.5691 15.2775
rfingers 7.12502
rthumb -0.969746 -14.7001
lclavicle -2.15184e-014 1.03368e-014
lhumerus -18.1517 -42.4019 89.2093
lradius 76.59
lwrist -10.3816
lhand -17.283 26.3427
lfingers 7.12502
lthumb 8.96224 56.1323
rfemur -12.9112 3.60971 16.5677
rtibia 31.2219
rfoot -17.0714 -13.7788
rtoes -12.9322
lfemur -9.42031 -1.6862 -21.0057
ltibia 28.4479
lfoot -19.4474 10.7302
ltoes -13.3522
1075
root -0.0485132 17.824 -1.94427 0.114337 -4.14543 1.97099
lowerback 5.89373 1.79808 0.83758
upperback 1.36218 2.448 0.242485
thorax -1.87467 1.21711 -0.40087
lowerneck -5.82266 -4.95889 -5.53279
upperneck 9.32198 -6.50282 3.68677
head 4.03941 -3.22033 1.66909
rclavicle 3.72721e-015 -6.36111e-015
rhumerus 2.04988 35.5276 -76.2161
rradius 77.3462
rwrist 9.64873
rhand -27.2643 15.5735
rfingers 7.12502
rthumb -0.675383 -14.4052
lclavicle 3.72721e-015 -6.36111e-015
lhumerus -18.6969 -42.6474 89.8017
lradius 76.6172
lwrist -10.5702
lhand -17.6515 26.5731
lfingers 7.12502
lthumb 8.6067 56.3777
rfemur -12.926 3.61416 16.4588
rtibia 31.083
rfoot -16.9576 -14.0752
rtoes -14.1334
lfemur -9.38039 -1.75395 -21.1047
ltibia 28.2847
lfoot -19.3616 10.763
ltoes -13.4524
1076
root -0.0497066 17.8265 -1.94201 0.122895 -4.06712 2.00278
lowerback 5.85064 1.8107 0.805814
upperback 1.36695 2.4625 0.245249
thorax -1.84704 1.22467 -0.379695
lowerneck -5.87098 -4.96471 -5.60549
upperneck 9.4046 -6.49961 3.6542
head 4.07384 -3.22236 1.66879
rclavicle -1.47101e-014 -9.54166e-015
rhumerus 1.57194 35.5977 -76.4635
rradius 77.0402
rwrist 9.30488
rhand -27.4079 15.4631
rfingers 7.12502
rthumb -0.814039 -14.5151
lclavicle -1.47101e-014 -9.54166e-015
lhumerus -19.184 -42.8198 90.3532
lradius 76.6575
lwrist -10.4565
lhand -18.0232 27.0854
lfingers 7.12502
lthumb 8.24792 56.9044
rfemur -12.8584 3.64549 16.4343
rtibia 30.9001
rfoot -16.8423 -14.2898
rtoes -14.6137
lfemur -9.31535 -1.82802 -21.137
ltibia 28.1292
lfoot -19.2228 10.8213
ltoes -13.82
1077
root -0.049196 17.8309 -1.93891 0.0969895 -4.02508 2.00326
lowerback 5.84683 1.8198 0.798242
upperback 1.37517 2.47467 0.273956
thorax -1.83792 1.23086 -0.346586
lowerneck -5.88414 -4.97308 -5.65245
upperneck 9.42519 -6.49579 3.55717
head 4.0806 -3.22681 1.64636
rclavicle -3.8266e-015 -7.95139e-016
rhumerus 1.00433 35.6881 -76.7575
rradius 76.7204
rwrist 9.03563
rhand -27.6399 15.7825
rfingers 7.12502
rthumb -1.03809 -14.1947
lclavicle -3.8266e-015 -7.95139e-016
lhumerus -19.6292 -42.7754 90.888
lradius 76.6049
lwrist -10.1872
lhand -18.095 27.0674
lfingers 7.12502
lthumb 8.17863 56.8891
rfemur -12.6957 3.64505 16.4305
rtibia 30.7089
rfoot -16.893 -14.2339
rtoes -14.2424
lfemur -9.19502 -1.88022 -21.1455
ltibia 27.9794
lfoot -19.2123 10.8034
ltoes -13.6267
1078
root -0.048751 17.8358 -1.93196 0.0818288 -4.00376 2.00395
lowerback 5.75712 1.83003 0.817611
upperback 1.39959 2.48843 0.277139
thorax -1.76199 1.23816 -0.351355
lowerneck -5.81892 -4.96791 -5.64872
upperneck 9.36712 -6.48307 3.47878
head 4.04887 -3.22494 1.62499
rclavicle 1.63997e-015 5.96354e-015
rhumerus 0.424759 35.6287 -77.1354
rradius 76.3404
rwrist 8.7757
rhand -27.5175 16.2904
rfingers 7.12502
rthumb -0.919924 -13.6874
lclavicle 1.63997e-015 5.96354e-015
lhumerus -20.0255 -42.6624 91.2969
lradius 76.5075
lwrist -9.97592
lhand -17.8155 26.381
lfingers 7.12502
lthumb 8.44839 56.192
rfemur -12.54 3.6108 16.4242
rtibia 30.5351
rfoot -16.8949 -14.1873
rtoes -14.2674
lfemur -9.06979 -1.93359 -21.1556
ltibia 27.8343
lfoot -19.2298 10.7756
ltoes -13.3082
1079
root -0.0501741 17.8416 -1.92659 0.143163 -4.00578 1.93994
lowerback 5.63277 1.84879 0.868101
upperback 1.38663 2.5158 0.308517
thorax -1.70494 1.25199 -0.345065
lowerneck -5.79188 -4.95675 -5.67757
upperneck 9.42449 -6.46269 3.42788
head 4.06026 -3.21883 1.61537
rclavicle 1.07344e-014 5.56597e-015
rhumerus -0.223001 35.6024 -77.5799
rradius 75.9376
rwrist 8.42635
rhand -27.4202 16.7064
rfingers 7.12502
rthumb -0.825917 -13.2717
lclavicle 1.07344e-014 5.56597e-015
lhumerus -20.4298 -42.4878 91.6853
lradius 76.4205
lwrist -9.78803
lhand -17.4687 25.7072
lfingers 7.12502
lthumb 8.78306 55.5045
rfemur -12.4966 3.63231 16.4965
rtibia 30.3685
rfoot -16.7589 -14.2312
rtoes -14.4522
lfemur -9.04288 -1.96115 -21.0849
ltibia 27.6982
lfoot -19.1687 10.8126
ltoes -13.2418
1080
root -0.0515525 17.8462 -1.92366 0.161533 -4.01663 1.93988
lowerback 5.62086 1.86704 0.815728
upperback 1.35775 2.53781 0.336651
thorax -1.73129 1.26296 -0.288704
lowerneck -5.92426 -4.93115 -5.72418
upperneck 9.66731 -6.41858 3.3967
head 4.15479 -3.19938 1.61001
rclavicle -2.78299e-014 9.93923e-015
rhumerus -0.914531 35.4532 -78.1188
rradius 75.5496
rwrist 7.71798
rhand -27.031 17.5758
rfingers 7.12502
rthumb -0.450053 -12.4035
lclavicle -2.78299e-014 9.93923e-015
lhumerus -20.8896 -42.386 92.1044
lradius 76.3401
lwrist -9.39468
lhand -17.3482 25.352
lfingers 7.12502
lthumb 8.89935 55.1444
rfemur -12.4421 3.66916 16.5025
rtibia 30.2401
rfoot -16.7269 -14.221
rtoes -14.3772
lfemur -8.97161 -1.98539 -21.0884
ltibia 27.5522
lfoot -19.0824 10.9025
ltoes -13.557
1081
root -0.0523692 17.8491 -1.92057 0.18238 -4.02111 1.90803
lowerback 5.60214 1.88197 0.837411
upperback 1.32944 2.55905 0.339243
thorax -1.74891 1.27333 -0.299566
lowerneck -5.99006 -4.89662 -5.7375
upperneck 9.81825 -6.37075 3.39895
head 4.21007 -3.17584 1.61256
rclavicle -1.65985e-014 -9.14409e-015
rhumerus -1.6628 35.2373 -78.7322
rradius 75.2225
rwrist 6.41677
rhand -26.643 18.8029
rfingers 7.12502
rthumb -0.0752656 -11.1769
lclavicle -1.65985e-014 -9.14409e-015
lhumerus -21.4311 -42.3066 92.5468
lradius 76.2652
lwrist -8.70264
lhand -17.2293 24.9773
lfingers 7.12502
lthumb 9.0141 54.7647
rfemur -12.4052 3.68508 16.541
rtibia 30.1663
rfoot -16.7035 -14.2589
rtoes -14.5341
lfemur -8.89593 -1.96268 -21.0489
ltibia 27.39
lfoot -19.0173 10.9395
ltoes -14.116
1082
root -0.0532814 17.8536 -1.91518 0.208613 -4.04985 1.94007
lowerback 5.55371 1.92058 0.804541
upperback 1.30152 2.60784 0.314919
thorax -1.75043 1.29773 -0.308316
lowerneck -5.97582 -4.87927 -5.73615
upperneck 9.85329 -6.34902 3.39825
head 4.21732 -3.16537 1.61349
rclavicle -3.21534e-014 -9.54166e-015
rhumerus -2.52728 35.0094 -79.4242
rradius 74.9026
rwrist 5.11961
rhand -26.1854 19.5975
rfingers 7.12502
rthumb 0.366638 -10.3819
lclavicle -3.21534e-014 -9.54166e-015
lhumerus -22.0018 -42.2594 93.0161
lradius 76.1027
lwrist -7.77112
lhand -17.3008 24.4703
lfingers 7.12502
lthumb 8.94507 54.2607
rfemur -12.352 3.69659 16.5081
rtibia 30.1081
rfoot -16.6947 -14.1615
rtoes -14.1487
lfemur -8.81631 -1.95972 -21.0858
ltibia 27.2248
lfoot -18.9665 11.0052
ltoes -14.2312
1083
root -0.0538906 17.8598 -1.90978 0.231078 -4.13338 2.004
lowerback 5.50902 1.97414 0.742251
upperback 1.27261 2.67483 0.284815
thorax -1.75596 1.3313 -0.307927
lowerneck -5.92236 -4.85118 -5.76122
upperneck 9.84307 -6.31396 3.42195
head 4.20523 -3.14838 1.62833
rclavicle 1.20762e-014 1.98785e-015
rhumerus -3.43381 34.7777 -80.1236
rradius 74.5393
rwrist 3.90283
rhand -25.5272 19.8919
rfingers 7.12502
rthumb 1.00243 -10.0855
lclavicle 1.20762e-014 1.98785e-015
lhumerus -22.5569 -42.0655 93.472
lradius 75.8855
lwrist -6.99173
lhand -17.3272 23.8642
lfingers 7.12502
lthumb 8.91965 53.6556
rfemur -12.2725 3.75339 16.4381
rtibia 30.0164
rfoot -16.6858 -13.956
rtoes -13.1199
lfemur -8.72775 -2.00388 -21.1593
ltibia 27.0543
lfoot -18.9658 11.0714
ltoes -13.8688
1084
root -0.054204 17.8647 -1.90173 0.274497 -4.20967 1.90799
lowerback 5.38832 2.01093 0.852793
upperback 1.27255 2.7291 0.300664
thorax -1.68379 1.3584 -0.352284
lowerneck -5.94844 -4.82944 -5.76113
upperneck 9.8777 -6.28005 3.38592
head 4.21744 -3.13333 1.61845
rclavicle -2.98674e-014 -5.56597e-015
rhumerus -4.29813 34.388 -80.8446
rradius 74.2115
rwrist 2.35083
rhand -24.8799 20.5291
rfingers 7.12502
rthumb 1.62755 -9.44443
lclavicle -2.98674e-014 -5.56597e-015
lhumerus -23.0569 -41.8442 93.8529
lradius 75.6783
lwrist -6.26791
lhand -17.0981 23.4474
lfingers 7.12502
lthumb 9.14072 53.2293
rfemur -12.2175 3.8366 16.543
rtibia 29.8929
rfoot -16.6829 -13.9477
rtoes -13.0341
lfemur -8.62438 -1.98346 -21.0568
ltibia 26.8634
lfoot -18.9076 11.1011
ltoes -13.8848
